<?xml version="1.0" standalone="no"?>
<!DOCTYPE svg PUBLIC "-//W3C//DTD SVG 20010904//EN"
 "http://www.w3.org/TR/2001/REC-SVG-20010904/DTD/svg10.dtd">
<svg version="1.0" xmlns="http://www.w3.org/2000/svg"
 width="1024.000000pt" height="1024.000000pt" viewBox="0 0 1024.000000 1024.000000"
 preserveAspectRatio="xMidYMid meet">
<metadata>
Created by potrace 1.14, written by Peter Selinger 2001-2017
</metadata>
<g transform="translate(0.000000,1024.000000) scale(0.100000,-0.100000)"
fill="#000000" stroke="none">
<path d="M3905 9271 c-49 -23 -88 -65 -104 -110 -16 -49 -15 -1009 1 -1064 26
-86 127 -142 215 -119 57 16 98 46 120 91 16 33 18 80 21 541 2 357 0 517 -9
547 -13 48 -58 95 -111 117 -49 21 -84 20 -133 -3z"/>
<path d="M4946 9275 c-53 -19 -102 -69 -115 -118 -9 -30 -11 -190 -9 -547 3
-461 5 -508 21 -541 22 -45 63 -75 120 -91 88 -23 189 33 215 119 16 55 17
1015 1 1064 -16 45 -55 87 -104 110 -47 22 -76 23 -129 4z"/>
<path d="M5965 9271 c-49 -23 -88 -65 -104 -110 -16 -49 -14 -1023 3 -1069 18
-50 70 -98 123 -112 81 -23 174 16 210 89 16 33 18 80 21 541 2 356 -1 517 -9
546 -19 72 -105 134 -184 134 -11 0 -38 -9 -60 -19z"/>
<path d="M2805 7726 c-73 -18 -131 -51 -186 -106 -84 -84 -119 -181 -119 -330
l0 -80 2510 0 2510 0 0 80 c0 149 -35 246 -120 330 -55 56 -123 93 -198 109
-80 17 -4328 14 -4397 -3z"/>
<path d="M7010 5128 c0 -986 -3 -1931 -7 -2100 l-6 -308 266 0 267 0 0 1065 0
1065 748 0 c850 0 809 -4 892 80 106 105 106 265 0 370 -83 84 -42 80 -892 80
l-748 0 0 505 0 505 1038 0 c1180 0 1108 -5 1192 80 106 105 106 265 0 370
-85 86 20 80 -1452 80 l-1298 0 0 -1792z"/>
<path d="M2498 5318 l-3 -1543 -23 -79 c-37 -132 -87 -221 -172 -307 -85 -86
-156 -126 -285 -160 -107 -29 -327 -31 -425 -5 -243 66 -415 270 -454 539 l-7
47 -260 0 c-232 0 -259 -2 -259 -16 0 -9 7 -64 16 -122 73 -496 398 -837 884
-927 126 -23 316 -30 455 -15 304 31 537 133 721 315 174 171 268 362 321 650
16 81 18 237 20 1628 l4 1537 -265 0 -266 0 -2 -1542z"/>
<path d="M3744 6486 l-34 -34 0 -1221 c0 -1328 -3 -1263 55 -1289 20 -9 320
-12 1241 -12 1320 0 1256 -3 1282 55 9 20 12 321 12 1246 l0 1221 -34 34 -34
34 -1227 0 -1227 0 -34 -34z"/>
<path d="M3134 3068 c-54 -91 -166 -229 -236 -293 l-61 -55 1942 0 1941 0 -2
203 -3 202 -1772 3 -1772 2 -37 -62z"/>
<path d="M3895 2423 c-44 -23 -65 -44 -86 -86 -19 -35 -19 -61 -17 -570 l3
-534 28 -36 c78 -102 226 -102 304 0 l28 36 3 534 c2 509 2 535 -17 570 -22
43 -42 64 -88 87 -40 20 -119 20 -158 -1z"/>
<path d="M4925 2423 c-44 -23 -65 -44 -86 -86 -19 -35 -19 -61 -17 -570 l3
-534 28 -36 c78 -102 226 -102 304 0 l28 36 3 534 c2 509 2 535 -17 570 -22
43 -42 64 -88 87 -40 20 -119 20 -158 -1z"/>
<path d="M5955 2423 c-44 -23 -65 -44 -86 -86 -19 -35 -19 -61 -17 -570 l3
-534 28 -36 c86 -113 254 -100 318 25 18 35 19 67 19 558 0 491 -1 523 -19
558 -22 42 -43 63 -88 86 -40 20 -119 20 -158 -1z"/>
</g>
</svg>
